<mxfile host="Electron" agent="Mozilla/5.0 (Macintosh; Intel Mac OS X 10_15_7) AppleWebKit/537.36 (KHTML, like Gecko) draw.io/24.7.17 Chrome/128.0.6613.36 Electron/32.0.1 Safari/537.36" version="24.7.17" pages="2">
  <diagram name="Copy of PÃ¡gina-1" id="vvUramcGbmhrqCRNin2m">
    <mxGraphModel dx="2245" dy="838" grid="1" gridSize="10" guides="1" tooltips="1" connect="1" arrows="1" fold="1" page="1" pageScale="1" pageWidth="827" pageHeight="1169" math="0" shadow="0">
      <root>
        <mxCell id="LavjUEa0YcaGuKOyNnuo-0" />
        <mxCell id="LavjUEa0YcaGuKOyNnuo-1" parent="LavjUEa0YcaGuKOyNnuo-0" />
        <mxCell id="LavjUEa0YcaGuKOyNnuo-2" value="" style="rounded=0;whiteSpace=wrap;html=1;" parent="LavjUEa0YcaGuKOyNnuo-1" vertex="1">
          <mxGeometry x="-180" y="20" width="1570" height="590" as="geometry" />
        </mxCell>
        <mxCell id="LavjUEa0YcaGuKOyNnuo-3" value="VPC" style="points=[[0,0],[0.25,0],[0.5,0],[0.75,0],[1,0],[1,0.25],[1,0.5],[1,0.75],[1,1],[0.75,1],[0.5,1],[0.25,1],[0,1],[0,0.75],[0,0.5],[0,0.25]];outlineConnect=0;gradientColor=none;html=1;whiteSpace=wrap;fontSize=12;fontStyle=0;container=1;pointerEvents=0;collapsible=0;recursiveResize=0;shape=mxgraph.aws4.group;grIcon=mxgraph.aws4.group_vpc2;strokeColor=#8C4FFF;fillColor=default;verticalAlign=top;align=left;spacingLeft=30;fontColor=#AAB7B8;dashed=0;" parent="LavjUEa0YcaGuKOyNnuo-1" vertex="1">
          <mxGeometry x="-40" y="40" width="1090" height="492.26" as="geometry" />
        </mxCell>
        <mxCell id="LavjUEa0YcaGuKOyNnuo-4" value="Public subnet" style="points=[[0,0],[0.25,0],[0.5,0],[0.75,0],[1,0],[1,0.25],[1,0.5],[1,0.75],[1,1],[0.75,1],[0.5,1],[0.25,1],[0,1],[0,0.75],[0,0.5],[0,0.25]];outlineConnect=0;gradientColor=none;html=1;whiteSpace=wrap;fontSize=12;fontStyle=0;container=0;pointerEvents=0;collapsible=0;recursiveResize=0;shape=mxgraph.aws4.group;grIcon=mxgraph.aws4.group_security_group;grStroke=0;strokeColor=#7AA116;fillColor=#F2F6E8;verticalAlign=top;align=left;spacingLeft=30;fontColor=#248814;dashed=0;" parent="LavjUEa0YcaGuKOyNnuo-3" vertex="1">
          <mxGeometry x="160" y="40" width="240" height="250" as="geometry" />
        </mxCell>
        <mxCell id="LavjUEa0YcaGuKOyNnuo-5" value="Internet Gateway" style="sketch=0;outlineConnect=0;fontColor=#232F3E;gradientColor=none;fillColor=#8C4FFF;strokeColor=none;dashed=0;verticalLabelPosition=bottom;verticalAlign=top;align=center;html=1;fontSize=12;fontStyle=0;aspect=fixed;pointerEvents=1;shape=mxgraph.aws4.internet_gateway;" parent="LavjUEa0YcaGuKOyNnuo-3" vertex="1">
          <mxGeometry x="40" y="120" width="48" height="48" as="geometry" />
        </mxCell>
        <mxCell id="LavjUEa0YcaGuKOyNnuo-6" value="" style="edgeStyle=orthogonalEdgeStyle;rounded=0;orthogonalLoop=1;jettySize=auto;html=1;entryX=0.5;entryY=0.986;entryDx=0;entryDy=0;entryPerimeter=0;startArrow=classic;startFill=1;" parent="LavjUEa0YcaGuKOyNnuo-3" source="LavjUEa0YcaGuKOyNnuo-8" target="LavjUEa0YcaGuKOyNnuo-18" edge="1">
          <mxGeometry relative="1" as="geometry" />
        </mxCell>
        <mxCell id="LavjUEa0YcaGuKOyNnuo-7" value="" style="edgeStyle=orthogonalEdgeStyle;rounded=0;orthogonalLoop=1;jettySize=auto;html=1;startArrow=classic;startFill=1;" parent="LavjUEa0YcaGuKOyNnuo-3" source="LavjUEa0YcaGuKOyNnuo-8" target="LavjUEa0YcaGuKOyNnuo-5" edge="1">
          <mxGeometry relative="1" as="geometry">
            <mxPoint x="201.89" y="245.485" as="targetPoint" />
            <Array as="points">
              <mxPoint x="120" y="246" />
              <mxPoint x="120" y="144" />
            </Array>
          </mxGeometry>
        </mxCell>
        <mxCell id="LavjUEa0YcaGuKOyNnuo-8" value="Public Route Table" style="sketch=0;outlineConnect=0;fontColor=#232F3E;gradientColor=none;fillColor=#8C4FFF;strokeColor=none;dashed=0;verticalLabelPosition=bottom;verticalAlign=top;align=center;html=1;fontSize=12;fontStyle=0;aspect=fixed;pointerEvents=1;shape=mxgraph.aws4.route_table;" parent="LavjUEa0YcaGuKOyNnuo-3" vertex="1">
          <mxGeometry x="256.34" y="230" width="31.78" height="30.97" as="geometry" />
        </mxCell>
        <mxCell id="LavjUEa0YcaGuKOyNnuo-9" value="" style="group" parent="LavjUEa0YcaGuKOyNnuo-3" vertex="1" connectable="0">
          <mxGeometry x="560" y="40" width="427.78" height="440" as="geometry" />
        </mxCell>
        <mxCell id="LavjUEa0YcaGuKOyNnuo-10" value="Private subnet" style="points=[[0,0],[0.25,0],[0.5,0],[0.75,0],[1,0],[1,0.25],[1,0.5],[1,0.75],[1,1],[0.75,1],[0.5,1],[0.25,1],[0,1],[0,0.75],[0,0.5],[0,0.25]];outlineConnect=0;gradientColor=none;html=1;whiteSpace=wrap;fontSize=12;fontStyle=0;container=0;pointerEvents=0;collapsible=0;recursiveResize=0;shape=mxgraph.aws4.group;grIcon=mxgraph.aws4.group_security_group;grStroke=0;strokeColor=#00A4A6;fillColor=#E6F6F7;verticalAlign=top;align=left;spacingLeft=30;fontColor=#147EBA;dashed=0;" parent="LavjUEa0YcaGuKOyNnuo-9" vertex="1">
          <mxGeometry width="427.78" height="440" as="geometry" />
        </mxCell>
        <mxCell id="LavjUEa0YcaGuKOyNnuo-11" value="" style="edgeStyle=orthogonalEdgeStyle;rounded=0;orthogonalLoop=1;jettySize=auto;html=1;entryX=0;entryY=0.5;entryDx=0;entryDy=0;startArrow=classic;startFill=1;strokeColor=#d366db;" parent="LavjUEa0YcaGuKOyNnuo-9" source="LavjUEa0YcaGuKOyNnuo-12" target="LavjUEa0YcaGuKOyNnuo-14" edge="1">
          <mxGeometry relative="1" as="geometry">
            <Array as="points">
              <mxPoint x="43" y="60" />
              <mxPoint x="180" y="60" />
            </Array>
          </mxGeometry>
        </mxCell>
        <mxCell id="LavjUEa0YcaGuKOyNnuo-12" value="Private &lt;br&gt;Route Table" style="sketch=0;outlineConnect=0;fontColor=#232F3E;gradientColor=none;fillColor=#8C4FFF;strokeColor=none;dashed=0;verticalLabelPosition=bottom;verticalAlign=top;align=center;html=1;fontSize=12;fontStyle=0;aspect=fixed;pointerEvents=1;shape=mxgraph.aws4.route_table;points=[];" parent="LavjUEa0YcaGuKOyNnuo-9" vertex="1">
          <mxGeometry x="18.421052631578945" y="87.79" width="49.349999999999994" height="48.08815789473684" as="geometry" />
        </mxCell>
        <mxCell id="LavjUEa0YcaGuKOyNnuo-13" value="" style="group" parent="LavjUEa0YcaGuKOyNnuo-9" vertex="1" connectable="0">
          <mxGeometry x="219.99717105263142" y="19.999999999999993" width="176.8421052631579" height="131.34" as="geometry" />
        </mxCell>
        <mxCell id="LavjUEa0YcaGuKOyNnuo-14" value="Security Group RDS" style="fillColor=none;strokeColor=#DD3522;verticalAlign=top;fontStyle=0;fontColor=#DD3522;whiteSpace=wrap;html=1;" parent="LavjUEa0YcaGuKOyNnuo-13" vertex="1">
          <mxGeometry y="-12" width="147.36842105263156" height="139" as="geometry" />
        </mxCell>
        <mxCell id="LavjUEa0YcaGuKOyNnuo-15" value="&lt;font style=&quot;font-size: 11px;&quot;&gt;RDS &lt;br&gt;API Database&lt;/font&gt;" style="sketch=0;outlineConnect=0;fontColor=#232F3E;gradientColor=none;fillColor=#C925D1;strokeColor=none;dashed=0;verticalLabelPosition=bottom;verticalAlign=top;align=center;html=1;fontSize=12;fontStyle=0;aspect=fixed;pointerEvents=1;shape=mxgraph.aws4.rds_mysql_instance;" parent="LavjUEa0YcaGuKOyNnuo-13" vertex="1">
          <mxGeometry x="51.77083333333338" y="30.264000000000014" width="45.13157894736842" height="45.13157894736842" as="geometry" />
        </mxCell>
        <mxCell id="cc2oBQzD4yiiqLEr-VID-1" value="" style="group" parent="LavjUEa0YcaGuKOyNnuo-9" vertex="1" connectable="0">
          <mxGeometry x="179.99611842105247" y="180" width="175" height="120" as="geometry" />
        </mxCell>
        <mxCell id="cc2oBQzD4yiiqLEr-VID-2" value="Security Group Redis" style="fillColor=none;strokeColor=#DD3522;verticalAlign=top;fontStyle=0;fontColor=#DD3522;whiteSpace=wrap;html=1;" parent="cc2oBQzD4yiiqLEr-VID-1" vertex="1">
          <mxGeometry y="-10" width="147.36842105263156" height="130" as="geometry" />
        </mxCell>
        <mxCell id="cc2oBQzD4yiiqLEr-VID-6" value="Redis&lt;div&gt;User Session Storage or&lt;br&gt;product price cache&lt;/div&gt;" style="image;sketch=0;aspect=fixed;html=1;points=[];align=center;fontSize=12;image=img/lib/mscae/Cache_Redis_Product.svg;labelBackgroundColor=none;" parent="cc2oBQzD4yiiqLEr-VID-1" vertex="1">
          <mxGeometry x="55.26546052631594" y="33.72000000000003" width="46.05263157894737" height="38.68421052631579" as="geometry" />
        </mxCell>
        <mxCell id="LavjUEa0YcaGuKOyNnuo-17" value="" style="group" parent="LavjUEa0YcaGuKOyNnuo-3" vertex="1" connectable="0">
          <mxGeometry x="210" y="80" width="150" height="119.45" as="geometry" />
        </mxCell>
        <mxCell id="LavjUEa0YcaGuKOyNnuo-18" value="Security group EC2" style="fillColor=none;strokeColor=#DD3522;verticalAlign=top;fontStyle=0;fontColor=#DD3522;whiteSpace=wrap;html=1;" parent="LavjUEa0YcaGuKOyNnuo-17" vertex="1">
          <mxGeometry width="124.44999999999999" height="119.45000000000002" as="geometry" />
        </mxCell>
        <mxCell id="LavjUEa0YcaGuKOyNnuo-19" value="EC2 - REST API" style="sketch=0;points=[[0,0,0],[0.25,0,0],[0.5,0,0],[0.75,0,0],[1,0,0],[0,1,0],[0.25,1,0],[0.5,1,0],[0.75,1,0],[1,1,0],[0,0.25,0],[0,0.5,0],[0,0.75,0],[1,0.25,0],[1,0.5,0],[1,0.75,0]];outlineConnect=0;fontColor=#232F3E;fillColor=#ED7100;strokeColor=#ffffff;dashed=0;verticalLabelPosition=bottom;verticalAlign=top;align=center;html=1;fontSize=12;fontStyle=0;aspect=fixed;shape=mxgraph.aws4.resourceIcon;resIcon=mxgraph.aws4.ec2;" parent="LavjUEa0YcaGuKOyNnuo-17" vertex="1">
          <mxGeometry x="36.47800275482091" y="33.98107811786204" width="51.49724517906335" height="51.49724517906335" as="geometry" />
        </mxCell>
        <mxCell id="CtQMmVy4rFtMCwkE12QE-0" value="" style="shape=image;verticalLabelPosition=bottom;labelBackgroundColor=default;verticalAlign=top;aspect=fixed;imageAspect=0;image=https://miro.medium.com/v2/resize:fit:600/1*i2skbfmDsHayHhqPfwt6pA.png;" vertex="1" parent="LavjUEa0YcaGuKOyNnuo-17">
          <mxGeometry x="100" y="-20" width="50" height="50" as="geometry" />
        </mxCell>
        <mxCell id="LavjUEa0YcaGuKOyNnuo-20" value="" style="edgeStyle=orthogonalEdgeStyle;rounded=0;orthogonalLoop=1;jettySize=auto;html=1;strokeColor=#ba121b;align=center;verticalAlign=middle;fontFamily=Helvetica;fontSize=11;fontColor=default;labelBackgroundColor=default;startArrow=classic;startFill=1;endArrow=classic;endFill=1;" parent="LavjUEa0YcaGuKOyNnuo-3" source="CtQMmVy4rFtMCwkE12QE-2" target="LavjUEa0YcaGuKOyNnuo-18" edge="1">
          <mxGeometry relative="1" as="geometry">
            <Array as="points">
              <mxPoint x="360" y="188" />
              <mxPoint x="360" y="188" />
            </Array>
          </mxGeometry>
        </mxCell>
        <mxCell id="LavjUEa0YcaGuKOyNnuo-21" value="" style="edgeStyle=orthogonalEdgeStyle;rounded=0;orthogonalLoop=1;jettySize=auto;html=1;strokeColor=#d366db;align=center;verticalAlign=middle;fontFamily=Helvetica;fontSize=11;fontColor=default;labelBackgroundColor=default;startArrow=classic;startFill=1;endArrow=classic;" parent="LavjUEa0YcaGuKOyNnuo-3" source="LavjUEa0YcaGuKOyNnuo-22" target="LavjUEa0YcaGuKOyNnuo-12" edge="1">
          <mxGeometry relative="1" as="geometry">
            <Array as="points">
              <mxPoint x="520" y="92" />
              <mxPoint x="520" y="140" />
            </Array>
          </mxGeometry>
        </mxCell>
        <mxCell id="CtQMmVy4rFtMCwkE12QE-1" value="" style="edgeStyle=orthogonalEdgeStyle;rounded=0;orthogonalLoop=1;jettySize=auto;html=1;entryX=1;entryY=0.5;entryDx=0;entryDy=0;strokeColor=#d366db;align=center;verticalAlign=middle;fontFamily=Helvetica;fontSize=11;fontColor=default;labelBackgroundColor=default;startArrow=classic;startFill=1;endArrow=classic;" edge="1" parent="LavjUEa0YcaGuKOyNnuo-3" source="LavjUEa0YcaGuKOyNnuo-22" target="LavjUEa0YcaGuKOyNnuo-18">
          <mxGeometry relative="1" as="geometry" />
        </mxCell>
        <mxCell id="LavjUEa0YcaGuKOyNnuo-22" value="" style="sketch=0;outlineConnect=0;fontColor=#232F3E;gradientColor=none;fillColor=#8C4FFF;strokeColor=none;dashed=0;verticalLabelPosition=bottom;verticalAlign=top;align=center;html=1;fontSize=12;fontStyle=0;aspect=fixed;pointerEvents=1;shape=mxgraph.aws4.vpn_connection;" parent="LavjUEa0YcaGuKOyNnuo-3" vertex="1">
          <mxGeometry x="454" y="70.00000000000001" width="40" height="44.57" as="geometry" />
        </mxCell>
        <mxCell id="CtQMmVy4rFtMCwkE12QE-2" value="Store/Get User Session" style="sketch=0;outlineConnect=0;fontColor=#232F3E;gradientColor=none;fillColor=#8C4FFF;strokeColor=none;dashed=0;verticalLabelPosition=bottom;verticalAlign=top;align=center;html=1;fontSize=12;fontStyle=0;aspect=fixed;pointerEvents=1;shape=mxgraph.aws4.vpn_connection;" vertex="1" parent="LavjUEa0YcaGuKOyNnuo-3">
          <mxGeometry x="454" y="168.00000000000003" width="40" height="44.57" as="geometry" />
        </mxCell>
        <mxCell id="CtQMmVy4rFtMCwkE12QE-3" value="" style="edgeStyle=orthogonalEdgeStyle;rounded=0;orthogonalLoop=1;jettySize=auto;html=1;startArrow=classic;startFill=1;endArrow=classic;endFill=1;strokeColor=#ba121b;" edge="1" parent="LavjUEa0YcaGuKOyNnuo-3" source="LavjUEa0YcaGuKOyNnuo-12" target="CtQMmVy4rFtMCwkE12QE-2">
          <mxGeometry relative="1" as="geometry">
            <mxPoint x="539" y="192" as="sourcePoint" />
            <mxPoint x="294" y="230" as="targetPoint" />
            <Array as="points">
              <mxPoint x="530" y="170" />
              <mxPoint x="530" y="200" />
            </Array>
          </mxGeometry>
        </mxCell>
        <mxCell id="LavjUEa0YcaGuKOyNnuo-23" value="" style="edgeStyle=orthogonalEdgeStyle;rounded=0;orthogonalLoop=1;jettySize=auto;html=1;startArrow=classic;startFill=1;" parent="LavjUEa0YcaGuKOyNnuo-1" source="LavjUEa0YcaGuKOyNnuo-24" target="LavjUEa0YcaGuKOyNnuo-5" edge="1">
          <mxGeometry relative="1" as="geometry">
            <mxPoint x="-61" y="226" as="targetPoint" />
          </mxGeometry>
        </mxCell>
        <mxCell id="LavjUEa0YcaGuKOyNnuo-24" value="Internet" style="outlineConnect=0;dashed=0;verticalLabelPosition=bottom;verticalAlign=top;align=center;html=1;shape=mxgraph.aws3.internet_gateway;fillColor=#F58534;gradientColor=none;" parent="LavjUEa0YcaGuKOyNnuo-1" vertex="1">
          <mxGeometry x="-170" y="148" width="69" height="72" as="geometry" />
        </mxCell>
        <mxCell id="CtQMmVy4rFtMCwkE12QE-13" value="" style="outlineConnect=0;dashed=0;verticalLabelPosition=bottom;verticalAlign=top;align=center;html=1;shape=mxgraph.aws3.http_protocol;fillColor=#5294CF;gradientColor=none;" vertex="1" parent="LavjUEa0YcaGuKOyNnuo-1">
          <mxGeometry x="1060" y="310" width="23" height="24.09" as="geometry" />
        </mxCell>
        <mxCell id="CtQMmVy4rFtMCwkE12QE-25" value="Amazon API" style="points=[[0,0],[0.25,0],[0.5,0],[0.75,0],[1,0],[1,0.25],[1,0.5],[1,0.75],[1,1],[0.75,1],[0.5,1],[0.25,1],[0,1],[0,0.75],[0,0.5],[0,0.25]];outlineConnect=0;gradientColor=none;html=1;whiteSpace=wrap;fontSize=12;fontStyle=0;container=0;pointerEvents=0;collapsible=0;recursiveResize=0;shape=mxgraph.aws4.group;grIcon=mxgraph.aws4.group_security_group;grStroke=0;strokeColor=#00A4A6;fillColor=#FFE599;verticalAlign=top;align=left;spacingLeft=30;fontColor=#147EBA;dashed=0;" vertex="1" parent="LavjUEa0YcaGuKOyNnuo-1">
          <mxGeometry x="1210" y="50" width="140" height="132.63" as="geometry" />
        </mxCell>
        <mxCell id="CtQMmVy4rFtMCwkE12QE-26" value="Meli API" style="points=[[0,0],[0.25,0],[0.5,0],[0.75,0],[1,0],[1,0.25],[1,0.5],[1,0.75],[1,1],[0.75,1],[0.5,1],[0.25,1],[0,1],[0,0.75],[0,0.5],[0,0.25]];outlineConnect=0;gradientColor=none;html=1;whiteSpace=wrap;fontSize=12;fontStyle=0;container=0;pointerEvents=0;collapsible=0;recursiveResize=0;shape=mxgraph.aws4.group;grIcon=mxgraph.aws4.group_security_group;grStroke=0;strokeColor=#00A4A6;fillColor=#FFFF33;verticalAlign=top;align=left;spacingLeft=30;fontColor=#147EBA;dashed=0;" vertex="1" parent="LavjUEa0YcaGuKOyNnuo-1">
          <mxGeometry x="1210" y="263.37" width="140" height="132.63" as="geometry" />
        </mxCell>
        <mxCell id="CtQMmVy4rFtMCwkE12QE-28" value="" style="group" vertex="1" connectable="0" parent="LavjUEa0YcaGuKOyNnuo-1">
          <mxGeometry x="550" y="390" width="150" height="119.45" as="geometry" />
        </mxCell>
        <mxCell id="CtQMmVy4rFtMCwkE12QE-29" value="Security group EC2" style="fillColor=none;strokeColor=#DD3522;verticalAlign=top;fontStyle=0;fontColor=#DD3522;whiteSpace=wrap;html=1;" vertex="1" parent="CtQMmVy4rFtMCwkE12QE-28">
          <mxGeometry width="124.44999999999999" height="119.45000000000002" as="geometry" />
        </mxCell>
        <mxCell id="CtQMmVy4rFtMCwkE12QE-30" value="EC2 - Price Update API" style="sketch=0;points=[[0,0,0],[0.25,0,0],[0.5,0,0],[0.75,0,0],[1,0,0],[0,1,0],[0.25,1,0],[0.5,1,0],[0.75,1,0],[1,1,0],[0,0.25,0],[0,0.5,0],[0,0.75,0],[1,0.25,0],[1,0.5,0],[1,0.75,0]];outlineConnect=0;fontColor=#232F3E;fillColor=#ED7100;strokeColor=#ffffff;dashed=0;verticalLabelPosition=bottom;verticalAlign=top;align=center;html=1;fontSize=12;fontStyle=0;aspect=fixed;shape=mxgraph.aws4.resourceIcon;resIcon=mxgraph.aws4.ec2;" vertex="1" parent="CtQMmVy4rFtMCwkE12QE-28">
          <mxGeometry x="36.47800275482091" y="33.98107811786204" width="51.49724517906335" height="51.49724517906335" as="geometry" />
        </mxCell>
        <mxCell id="CtQMmVy4rFtMCwkE12QE-31" value="" style="shape=image;verticalLabelPosition=bottom;labelBackgroundColor=default;verticalAlign=top;aspect=fixed;imageAspect=0;image=https://miro.medium.com/v2/resize:fit:600/1*i2skbfmDsHayHhqPfwt6pA.png;" vertex="1" parent="CtQMmVy4rFtMCwkE12QE-28">
          <mxGeometry x="100" y="-20" width="50" height="50" as="geometry" />
        </mxCell>
        <mxCell id="CtQMmVy4rFtMCwkE12QE-34" value="" style="edgeStyle=orthogonalEdgeStyle;rounded=0;orthogonalLoop=1;jettySize=auto;html=1;" edge="1" parent="LavjUEa0YcaGuKOyNnuo-1" source="CtQMmVy4rFtMCwkE12QE-32" target="CtQMmVy4rFtMCwkE12QE-26">
          <mxGeometry relative="1" as="geometry">
            <mxPoint x="1108" y="344" as="targetPoint" />
            <Array as="points">
              <mxPoint x="1160" y="344" />
              <mxPoint x="1160" y="344" />
            </Array>
          </mxGeometry>
        </mxCell>
        <mxCell id="CtQMmVy4rFtMCwkE12QE-32" value="Internet Gateway" style="sketch=0;outlineConnect=0;fontColor=#232F3E;gradientColor=none;fillColor=#8C4FFF;strokeColor=none;dashed=0;verticalLabelPosition=bottom;verticalAlign=top;align=center;html=1;fontSize=12;fontStyle=0;aspect=fixed;pointerEvents=1;shape=mxgraph.aws4.internet_gateway;" vertex="1" parent="LavjUEa0YcaGuKOyNnuo-1">
          <mxGeometry x="980" y="320" width="48" height="48" as="geometry" />
        </mxCell>
        <mxCell id="CtQMmVy4rFtMCwkE12QE-33" value="" style="edgeStyle=orthogonalEdgeStyle;rounded=0;orthogonalLoop=1;jettySize=auto;html=1;" edge="1" parent="LavjUEa0YcaGuKOyNnuo-1" source="CtQMmVy4rFtMCwkE12QE-29" target="CtQMmVy4rFtMCwkE12QE-32">
          <mxGeometry relative="1" as="geometry">
            <mxPoint x="754.45" y="449.725" as="targetPoint" />
            <Array as="points">
              <mxPoint x="900" y="450" />
              <mxPoint x="900" y="344" />
            </Array>
          </mxGeometry>
        </mxCell>
        <mxCell id="CtQMmVy4rFtMCwkE12QE-35" value="" style="edgeStyle=orthogonalEdgeStyle;rounded=0;orthogonalLoop=1;jettySize=auto;html=1;" edge="1" parent="LavjUEa0YcaGuKOyNnuo-1" source="CtQMmVy4rFtMCwkE12QE-32" target="CtQMmVy4rFtMCwkE12QE-25">
          <mxGeometry relative="1" as="geometry">
            <mxPoint x="1210" y="340" as="targetPoint" />
            <mxPoint x="1038" y="354" as="sourcePoint" />
            <Array as="points">
              <mxPoint x="1020" y="290" />
              <mxPoint x="1130" y="290" />
              <mxPoint x="1130" y="116" />
            </Array>
          </mxGeometry>
        </mxCell>
        <mxCell id="CtQMmVy4rFtMCwkE12QE-36" value="Shopee API" style="points=[[0,0],[0.25,0],[0.5,0],[0.75,0],[1,0],[1,0.25],[1,0.5],[1,0.75],[1,1],[0.75,1],[0.5,1],[0.25,1],[0,1],[0,0.75],[0,0.5],[0,0.25]];outlineConnect=0;gradientColor=none;html=1;whiteSpace=wrap;fontSize=12;fontStyle=0;container=0;pointerEvents=0;collapsible=0;recursiveResize=0;shape=mxgraph.aws4.group;grIcon=mxgraph.aws4.group_security_group;grStroke=0;strokeColor=#00A4A6;fillColor=#FFFF33;verticalAlign=top;align=left;spacingLeft=30;fontColor=#147EBA;dashed=0;" vertex="1" parent="LavjUEa0YcaGuKOyNnuo-1">
          <mxGeometry x="1210" y="450" width="140" height="132.63" as="geometry" />
        </mxCell>
        <mxCell id="CtQMmVy4rFtMCwkE12QE-37" value="" style="edgeStyle=orthogonalEdgeStyle;rounded=0;orthogonalLoop=1;jettySize=auto;html=1;entryX=0;entryY=0.25;entryDx=0;entryDy=0;" edge="1" parent="LavjUEa0YcaGuKOyNnuo-1" target="CtQMmVy4rFtMCwkE12QE-36">
          <mxGeometry relative="1" as="geometry">
            <mxPoint x="1220" y="354" as="targetPoint" />
            <mxPoint x="1038" y="354" as="sourcePoint" />
          </mxGeometry>
        </mxCell>
        <mxCell id="CtQMmVy4rFtMCwkE12QE-38" value="" style="edgeStyle=orthogonalEdgeStyle;rounded=0;orthogonalLoop=1;jettySize=auto;html=1;entryX=0;entryY=0.75;entryDx=0;entryDy=0;startArrow=classic;startFill=1;" edge="1" parent="LavjUEa0YcaGuKOyNnuo-1" source="CtQMmVy4rFtMCwkE12QE-29" target="cc2oBQzD4yiiqLEr-VID-2">
          <mxGeometry relative="1" as="geometry">
            <mxPoint x="612.225" y="310" as="targetPoint" />
            <Array as="points">
              <mxPoint x="612" y="348" />
              <mxPoint x="680" y="348" />
            </Array>
          </mxGeometry>
        </mxCell>
        <mxCell id="CtQMmVy4rFtMCwkE12QE-39" value="" style="image;aspect=fixed;html=1;points=[];align=center;fontSize=12;image=img/lib/azure2/app_services/App_Services.svg;" vertex="1" parent="LavjUEa0YcaGuKOyNnuo-1">
          <mxGeometry x="610" y="610" width="64" height="64" as="geometry" />
        </mxCell>
        <mxCell id="CtQMmVy4rFtMCwkE12QE-42" value="" style="image;sketch=0;aspect=fixed;html=1;points=[];align=center;fontSize=12;image=img/lib/mscae/Client_Apps.svg;" vertex="1" parent="LavjUEa0YcaGuKOyNnuo-1">
          <mxGeometry x="640" y="640" width="50" height="50" as="geometry" />
        </mxCell>
        <mxCell id="CtQMmVy4rFtMCwkE12QE-45" value="" style="image;sketch=0;aspect=fixed;html=1;points=[];align=center;fontSize=12;image=img/lib/mscae/Functions.svg;" vertex="1" parent="LavjUEa0YcaGuKOyNnuo-1">
          <mxGeometry x="660" y="660" width="50" height="46" as="geometry" />
        </mxCell>
        <mxCell id="CtQMmVy4rFtMCwkE12QE-49" value="" style="group" vertex="1" connectable="0" parent="LavjUEa0YcaGuKOyNnuo-1">
          <mxGeometry x="1251" y="100" width="58" height="59.89999999999998" as="geometry" />
        </mxCell>
        <mxCell id="CtQMmVy4rFtMCwkE12QE-46" value="" style="outlineConnect=0;dashed=0;verticalLabelPosition=bottom;verticalAlign=top;align=center;html=1;shape=mxgraph.aws3.worker;fillColor=#3399FF;gradientColor=none;" vertex="1" parent="CtQMmVy4rFtMCwkE12QE-49">
          <mxGeometry width="38" height="39.9" as="geometry" />
        </mxCell>
        <mxCell id="CtQMmVy4rFtMCwkE12QE-47" value="" style="outlineConnect=0;dashed=0;verticalLabelPosition=bottom;verticalAlign=top;align=center;html=1;shape=mxgraph.aws3.worker;fillColor=#3399FF;gradientColor=none;" vertex="1" parent="CtQMmVy4rFtMCwkE12QE-49">
          <mxGeometry x="10" y="10" width="38" height="39.9" as="geometry" />
        </mxCell>
        <mxCell id="CtQMmVy4rFtMCwkE12QE-48" value="" style="outlineConnect=0;dashed=0;verticalLabelPosition=bottom;verticalAlign=top;align=center;html=1;shape=mxgraph.aws3.worker;fillColor=#3399FF;gradientColor=none;" vertex="1" parent="CtQMmVy4rFtMCwkE12QE-49">
          <mxGeometry x="20" y="20" width="38" height="39.9" as="geometry" />
        </mxCell>
        <mxCell id="CtQMmVy4rFtMCwkE12QE-50" value="" style="group" vertex="1" connectable="0" parent="LavjUEa0YcaGuKOyNnuo-1">
          <mxGeometry x="1250" y="310" width="58" height="59.89999999999998" as="geometry" />
        </mxCell>
        <mxCell id="CtQMmVy4rFtMCwkE12QE-51" value="" style="outlineConnect=0;dashed=0;verticalLabelPosition=bottom;verticalAlign=top;align=center;html=1;shape=mxgraph.aws3.worker;fillColor=#3399FF;gradientColor=none;" vertex="1" parent="CtQMmVy4rFtMCwkE12QE-50">
          <mxGeometry width="38" height="39.9" as="geometry" />
        </mxCell>
        <mxCell id="CtQMmVy4rFtMCwkE12QE-52" value="" style="outlineConnect=0;dashed=0;verticalLabelPosition=bottom;verticalAlign=top;align=center;html=1;shape=mxgraph.aws3.worker;fillColor=#3399FF;gradientColor=none;" vertex="1" parent="CtQMmVy4rFtMCwkE12QE-50">
          <mxGeometry x="10" y="10" width="38" height="39.9" as="geometry" />
        </mxCell>
        <mxCell id="CtQMmVy4rFtMCwkE12QE-53" value="" style="outlineConnect=0;dashed=0;verticalLabelPosition=bottom;verticalAlign=top;align=center;html=1;shape=mxgraph.aws3.worker;fillColor=#3399FF;gradientColor=none;" vertex="1" parent="CtQMmVy4rFtMCwkE12QE-50">
          <mxGeometry x="20" y="20" width="38" height="39.9" as="geometry" />
        </mxCell>
        <mxCell id="CtQMmVy4rFtMCwkE12QE-54" value="" style="group" vertex="1" connectable="0" parent="LavjUEa0YcaGuKOyNnuo-1">
          <mxGeometry x="1250" y="490" width="58" height="59.89999999999998" as="geometry" />
        </mxCell>
        <mxCell id="CtQMmVy4rFtMCwkE12QE-55" value="" style="outlineConnect=0;dashed=0;verticalLabelPosition=bottom;verticalAlign=top;align=center;html=1;shape=mxgraph.aws3.worker;fillColor=#3399FF;gradientColor=none;" vertex="1" parent="CtQMmVy4rFtMCwkE12QE-54">
          <mxGeometry width="38" height="39.9" as="geometry" />
        </mxCell>
        <mxCell id="CtQMmVy4rFtMCwkE12QE-56" value="" style="outlineConnect=0;dashed=0;verticalLabelPosition=bottom;verticalAlign=top;align=center;html=1;shape=mxgraph.aws3.worker;fillColor=#3399FF;gradientColor=none;" vertex="1" parent="CtQMmVy4rFtMCwkE12QE-54">
          <mxGeometry x="10" y="10" width="38" height="39.9" as="geometry" />
        </mxCell>
        <mxCell id="CtQMmVy4rFtMCwkE12QE-57" value="" style="outlineConnect=0;dashed=0;verticalLabelPosition=bottom;verticalAlign=top;align=center;html=1;shape=mxgraph.aws3.worker;fillColor=#3399FF;gradientColor=none;" vertex="1" parent="CtQMmVy4rFtMCwkE12QE-54">
          <mxGeometry x="20" y="20" width="38" height="39.9" as="geometry" />
        </mxCell>
        <mxCell id="cc2oBQzD4yiiqLEr-VID-7" value="" style="edgeStyle=orthogonalEdgeStyle;rounded=0;orthogonalLoop=1;jettySize=auto;html=1;entryX=0.25;entryY=0;entryDx=0;entryDy=0;startArrow=classic;startFill=1;strokeColor=#ba121b;align=center;verticalAlign=middle;fontFamily=Helvetica;fontSize=11;fontColor=default;labelBackgroundColor=default;endArrow=classic;endFill=1;" parent="LavjUEa0YcaGuKOyNnuo-1" source="LavjUEa0YcaGuKOyNnuo-12" target="CtQMmVy4rFtMCwkE12QE-29" edge="1">
          <mxGeometry relative="1" as="geometry">
            <mxPoint x="578.9473684210526" y="194" as="sourcePoint" />
            <mxPoint x="677.5" y="195" as="targetPoint" />
          </mxGeometry>
        </mxCell>
        <mxCell id="CtQMmVy4rFtMCwkE12QE-58" value="Get Prices" style="edgeLabel;html=1;align=center;verticalAlign=middle;resizable=0;points=[];" vertex="1" connectable="0" parent="cc2oBQzD4yiiqLEr-VID-7">
          <mxGeometry x="-0.2384" y="2" relative="1" as="geometry">
            <mxPoint as="offset" />
          </mxGeometry>
        </mxCell>
      </root>
    </mxGraphModel>
  </diagram>
  <diagram name="PÃ¡gina-1" id="ONS-rPQzBSZ89SATWgAL">
    <mxGraphModel dx="1765" dy="658" grid="1" gridSize="10" guides="1" tooltips="1" connect="1" arrows="1" fold="1" page="1" pageScale="1" pageWidth="827" pageHeight="1169" math="0" shadow="0">
      <root>
        <mxCell id="0" />
        <mxCell id="1" parent="0" />
        <mxCell id="CQoweN00I3IKvNDTTNp9-1" value="" style="rounded=0;whiteSpace=wrap;html=1;" parent="1" vertex="1">
          <mxGeometry x="-200" width="1010" height="400" as="geometry" />
        </mxCell>
        <mxCell id="sr-O2cDhQad6UB2QTniR-1" value="VPC" style="points=[[0,0],[0.25,0],[0.5,0],[0.75,0],[1,0],[1,0.25],[1,0.5],[1,0.75],[1,1],[0.75,1],[0.5,1],[0.25,1],[0,1],[0,0.75],[0,0.5],[0,0.25]];outlineConnect=0;gradientColor=none;html=1;whiteSpace=wrap;fontSize=12;fontStyle=0;container=1;pointerEvents=0;collapsible=0;recursiveResize=0;shape=mxgraph.aws4.group;grIcon=mxgraph.aws4.group_vpc2;strokeColor=#8C4FFF;fillColor=default;verticalAlign=top;align=left;spacingLeft=30;fontColor=#AAB7B8;dashed=0;" parent="1" vertex="1">
          <mxGeometry x="-40" y="40" width="800" height="320" as="geometry" />
        </mxCell>
        <mxCell id="sr-O2cDhQad6UB2QTniR-2" value="Public subnet" style="points=[[0,0],[0.25,0],[0.5,0],[0.75,0],[1,0],[1,0.25],[1,0.5],[1,0.75],[1,1],[0.75,1],[0.5,1],[0.25,1],[0,1],[0,0.75],[0,0.5],[0,0.25]];outlineConnect=0;gradientColor=none;html=1;whiteSpace=wrap;fontSize=12;fontStyle=0;container=0;pointerEvents=0;collapsible=0;recursiveResize=0;shape=mxgraph.aws4.group;grIcon=mxgraph.aws4.group_security_group;grStroke=0;strokeColor=#7AA116;fillColor=#F2F6E8;verticalAlign=top;align=left;spacingLeft=30;fontColor=#248814;dashed=0;" parent="sr-O2cDhQad6UB2QTniR-1" vertex="1">
          <mxGeometry x="160" y="40" width="240" height="240" as="geometry" />
        </mxCell>
        <mxCell id="sr-O2cDhQad6UB2QTniR-8" value="Internet Gateway" style="sketch=0;outlineConnect=0;fontColor=#232F3E;gradientColor=none;fillColor=#8C4FFF;strokeColor=none;dashed=0;verticalLabelPosition=bottom;verticalAlign=top;align=center;html=1;fontSize=12;fontStyle=0;aspect=fixed;pointerEvents=1;shape=mxgraph.aws4.internet_gateway;" parent="sr-O2cDhQad6UB2QTniR-1" vertex="1">
          <mxGeometry x="40" y="120" width="48" height="48" as="geometry" />
        </mxCell>
        <mxCell id="sr-O2cDhQad6UB2QTniR-25" value="" style="edgeStyle=orthogonalEdgeStyle;rounded=0;orthogonalLoop=1;jettySize=auto;html=1;entryX=0.5;entryY=0.986;entryDx=0;entryDy=0;entryPerimeter=0;startArrow=classic;startFill=1;" parent="sr-O2cDhQad6UB2QTniR-1" source="sr-O2cDhQad6UB2QTniR-6" target="sr-O2cDhQad6UB2QTniR-9" edge="1">
          <mxGeometry relative="1" as="geometry" />
        </mxCell>
        <mxCell id="sr-O2cDhQad6UB2QTniR-26" value="" style="edgeStyle=orthogonalEdgeStyle;rounded=0;orthogonalLoop=1;jettySize=auto;html=1;startArrow=classic;startFill=1;" parent="sr-O2cDhQad6UB2QTniR-1" source="sr-O2cDhQad6UB2QTniR-6" target="sr-O2cDhQad6UB2QTniR-8" edge="1">
          <mxGeometry relative="1" as="geometry">
            <mxPoint x="201.89" y="245.485" as="targetPoint" />
            <Array as="points">
              <mxPoint x="120" y="246" />
              <mxPoint x="120" y="144" />
            </Array>
          </mxGeometry>
        </mxCell>
        <mxCell id="sr-O2cDhQad6UB2QTniR-6" value="Public Route Table" style="sketch=0;outlineConnect=0;fontColor=#232F3E;gradientColor=none;fillColor=#8C4FFF;strokeColor=none;dashed=0;verticalLabelPosition=bottom;verticalAlign=top;align=center;html=1;fontSize=12;fontStyle=0;aspect=fixed;pointerEvents=1;shape=mxgraph.aws4.route_table;" parent="sr-O2cDhQad6UB2QTniR-1" vertex="1">
          <mxGeometry x="256.34" y="230" width="31.78" height="30.97" as="geometry" />
        </mxCell>
        <mxCell id="sr-O2cDhQad6UB2QTniR-17" value="" style="group" parent="sr-O2cDhQad6UB2QTniR-1" vertex="1" connectable="0">
          <mxGeometry x="520" y="40.00000000000001" width="240.00000000000006" height="240" as="geometry" />
        </mxCell>
        <mxCell id="sr-O2cDhQad6UB2QTniR-3" value="Private subnet" style="points=[[0,0],[0.25,0],[0.5,0],[0.75,0],[1,0],[1,0.25],[1,0.5],[1,0.75],[1,1],[0.75,1],[0.5,1],[0.25,1],[0,1],[0,0.75],[0,0.5],[0,0.25]];outlineConnect=0;gradientColor=none;html=1;whiteSpace=wrap;fontSize=12;fontStyle=0;container=0;pointerEvents=0;collapsible=0;recursiveResize=0;shape=mxgraph.aws4.group;grIcon=mxgraph.aws4.group_security_group;grStroke=0;strokeColor=#00A4A6;fillColor=#E6F6F7;verticalAlign=top;align=left;spacingLeft=30;fontColor=#147EBA;dashed=0;" parent="sr-O2cDhQad6UB2QTniR-17" vertex="1">
          <mxGeometry width="240" height="240" as="geometry" />
        </mxCell>
        <mxCell id="sr-O2cDhQad6UB2QTniR-27" value="" style="edgeStyle=orthogonalEdgeStyle;rounded=0;orthogonalLoop=1;jettySize=auto;html=1;entryX=0.5;entryY=1;entryDx=0;entryDy=0;startArrow=classic;startFill=1;" parent="sr-O2cDhQad6UB2QTniR-17" source="sr-O2cDhQad6UB2QTniR-7" target="sr-O2cDhQad6UB2QTniR-12" edge="1">
          <mxGeometry relative="1" as="geometry" />
        </mxCell>
        <mxCell id="sr-O2cDhQad6UB2QTniR-7" value="Private Route Table" style="sketch=0;outlineConnect=0;fontColor=#232F3E;gradientColor=none;fillColor=#8C4FFF;strokeColor=none;dashed=0;verticalLabelPosition=bottom;verticalAlign=top;align=center;html=1;fontSize=12;fontStyle=0;aspect=fixed;pointerEvents=1;shape=mxgraph.aws4.route_table;" parent="sr-O2cDhQad6UB2QTniR-17" vertex="1">
          <mxGeometry x="108.55" y="190" width="34" height="33.13" as="geometry" />
        </mxCell>
        <mxCell id="sr-O2cDhQad6UB2QTniR-16" value="" style="group" parent="sr-O2cDhQad6UB2QTniR-17" vertex="1" connectable="0">
          <mxGeometry x="65.5499999999999" y="49.99999999999999" width="120" height="109.45" as="geometry" />
        </mxCell>
        <mxCell id="sr-O2cDhQad6UB2QTniR-12" value="Security group" style="fillColor=none;strokeColor=#DD3522;verticalAlign=top;fontStyle=0;fontColor=#DD3522;whiteSpace=wrap;html=1;" parent="sr-O2cDhQad6UB2QTniR-16" vertex="1">
          <mxGeometry y="-10" width="120" height="119.45" as="geometry" />
        </mxCell>
        <mxCell id="sr-O2cDhQad6UB2QTniR-5" value="&lt;font style=&quot;font-size: 11px;&quot;&gt;RDS &lt;br&gt;Database&lt;/font&gt;" style="sketch=0;outlineConnect=0;fontColor=#232F3E;gradientColor=none;fillColor=#C925D1;strokeColor=none;dashed=0;verticalLabelPosition=bottom;verticalAlign=top;align=center;html=1;fontSize=12;fontStyle=0;aspect=fixed;pointerEvents=1;shape=mxgraph.aws4.rds_mysql_instance;" parent="sr-O2cDhQad6UB2QTniR-16" vertex="1">
          <mxGeometry x="35.50000000000004" y="25.220000000000013" width="49" height="49" as="geometry" />
        </mxCell>
        <mxCell id="sr-O2cDhQad6UB2QTniR-13" value="" style="sketch=0;outlineConnect=0;fontColor=#232F3E;gradientColor=none;fillColor=#DD344C;strokeColor=none;dashed=0;verticalLabelPosition=bottom;verticalAlign=top;align=center;html=1;fontSize=12;fontStyle=0;aspect=fixed;pointerEvents=1;shape=mxgraph.aws4.permissions;" parent="sr-O2cDhQad6UB2QTniR-16" vertex="1">
          <mxGeometry x="1.1368683772161603e-13" y="83.94999999999999" width="20.27" height="25.5" as="geometry" />
        </mxCell>
        <mxCell id="sr-O2cDhQad6UB2QTniR-18" value="" style="group" parent="sr-O2cDhQad6UB2QTniR-1" vertex="1" connectable="0">
          <mxGeometry x="210" y="80" width="150" height="119.45" as="geometry" />
        </mxCell>
        <mxCell id="sr-O2cDhQad6UB2QTniR-9" value="Security group" style="fillColor=none;strokeColor=#DD3522;verticalAlign=top;fontStyle=0;fontColor=#DD3522;whiteSpace=wrap;html=1;" parent="sr-O2cDhQad6UB2QTniR-18" vertex="1">
          <mxGeometry width="124.44999999999999" height="119.45000000000002" as="geometry" />
        </mxCell>
        <mxCell id="sr-O2cDhQad6UB2QTniR-4" value="EC2 Instance&lt;br&gt;REST API" style="sketch=0;points=[[0,0,0],[0.25,0,0],[0.5,0,0],[0.75,0,0],[1,0,0],[0,1,0],[0.25,1,0],[0.5,1,0],[0.75,1,0],[1,1,0],[0,0.25,0],[0,0.5,0],[0,0.75,0],[1,0.25,0],[1,0.5,0],[1,0.75,0]];outlineConnect=0;fontColor=#232F3E;fillColor=#ED7100;strokeColor=#ffffff;dashed=0;verticalLabelPosition=bottom;verticalAlign=top;align=center;html=1;fontSize=12;fontStyle=0;aspect=fixed;shape=mxgraph.aws4.resourceIcon;resIcon=mxgraph.aws4.ec2;" parent="sr-O2cDhQad6UB2QTniR-18" vertex="1">
          <mxGeometry x="36.47800275482091" y="33.98107811786204" width="51.49724517906335" height="51.49724517906335" as="geometry" />
        </mxCell>
        <mxCell id="SGCRF0wOQvu9H_UBHBl_-1" value="" style="shape=image;verticalLabelPosition=bottom;labelBackgroundColor=default;verticalAlign=top;aspect=fixed;imageAspect=0;image=https://miro.medium.com/v2/resize:fit:600/1*i2skbfmDsHayHhqPfwt6pA.png;" vertex="1" parent="sr-O2cDhQad6UB2QTniR-18">
          <mxGeometry x="100" y="-20" width="50" height="50" as="geometry" />
        </mxCell>
        <mxCell id="sr-O2cDhQad6UB2QTniR-23" value="" style="edgeStyle=orthogonalEdgeStyle;rounded=0;orthogonalLoop=1;jettySize=auto;html=1;" parent="sr-O2cDhQad6UB2QTniR-1" source="sr-O2cDhQad6UB2QTniR-22" target="sr-O2cDhQad6UB2QTniR-9" edge="1">
          <mxGeometry relative="1" as="geometry" />
        </mxCell>
        <mxCell id="sr-O2cDhQad6UB2QTniR-24" value="" style="edgeStyle=orthogonalEdgeStyle;rounded=0;orthogonalLoop=1;jettySize=auto;html=1;" parent="sr-O2cDhQad6UB2QTniR-1" source="sr-O2cDhQad6UB2QTniR-22" target="sr-O2cDhQad6UB2QTniR-7" edge="1">
          <mxGeometry relative="1" as="geometry">
            <Array as="points">
              <mxPoint x="470" y="240" />
            </Array>
          </mxGeometry>
        </mxCell>
        <mxCell id="sr-O2cDhQad6UB2QTniR-22" value="" style="sketch=0;outlineConnect=0;fontColor=#232F3E;gradientColor=none;fillColor=#8C4FFF;strokeColor=none;dashed=0;verticalLabelPosition=bottom;verticalAlign=top;align=center;html=1;fontSize=12;fontStyle=0;aspect=fixed;pointerEvents=1;shape=mxgraph.aws4.vpn_connection;" parent="sr-O2cDhQad6UB2QTniR-1" vertex="1">
          <mxGeometry x="450" y="117.44000000000001" width="40" height="44.57" as="geometry" />
        </mxCell>
        <mxCell id="sr-O2cDhQad6UB2QTniR-21" value="" style="edgeStyle=orthogonalEdgeStyle;rounded=0;orthogonalLoop=1;jettySize=auto;html=1;startArrow=classic;startFill=1;" parent="1" source="sr-O2cDhQad6UB2QTniR-20" target="sr-O2cDhQad6UB2QTniR-8" edge="1">
          <mxGeometry relative="1" as="geometry">
            <mxPoint x="-61" y="226" as="targetPoint" />
          </mxGeometry>
        </mxCell>
        <mxCell id="sr-O2cDhQad6UB2QTniR-20" value="Internet" style="outlineConnect=0;dashed=0;verticalLabelPosition=bottom;verticalAlign=top;align=center;html=1;shape=mxgraph.aws3.internet_gateway;fillColor=#F58534;gradientColor=none;" parent="1" vertex="1">
          <mxGeometry x="-170" y="148" width="69" height="72" as="geometry" />
        </mxCell>
      </root>
    </mxGraphModel>
  </diagram>
</mxfile>
